<svg width="59" height="59" viewBox="0 0 59 59" fill="none" xmlns="http://www.w3.org/2000/svg">
<g id="Group 77">
<circle id="Ellipse 6" cx="29.5" cy="29.5" r="29.5" fill="#FAFAFA"/>
<path id="Vector" d="M18.6111 31.5961L28.2911 22.4354C28.454 22.2771 28.6306 22.1647 28.8207 22.0982C29.0108 22.0317 29.2145 21.999 29.4318 22C29.649 22 29.8527 22.0327 30.0428 22.0982C30.2329 22.1636 30.4095 22.276 30.5724 22.4354L40.4297 31.5961C40.8099 31.9655 41 32.4273 41 32.9814C41 33.5355 40.7963 34.0105 40.3889 34.4063C39.9815 34.8021 39.5063 35 38.9631 35C38.4199 35 37.9446 34.8021 37.5373 34.4063L29.4318 26.9476L21.4627 34.4063C21.0825 34.7757 20.6138 34.9604 20.0565 34.9604C19.4992 34.9604 19.0174 34.7625 18.6111 34.3667C18.2037 33.9709 18 33.5091 18 32.9814C18 32.4537 18.2037 31.9919 18.6111 31.5961Z" fill="#131926"/>
</g>
</svg>
